# xmcd
#
# Track frame offsets:
#	150
#	14323
#	30069
#	44928
#	59306
#	75718
#	90482
#	105864
#	122246
#	137457
#
# Disc length: 2039 seconds
#
# Revision: 0
# Processed by: cddbd v1.5.2PL0 Copyright (c) Steve Scherf et al.
# Submitted via: EasyCDDAExtractor 16.0.6.1
#
DISCID=7107f50a
DTITLE=Τζουανάκος Σταύρος - Στο δρόμο της νοσταλγίας-Σ. Τζουανάκος
DYEAR=2006
DGENRE=Ρεμπέτικη
TTITLE0=Τζουανάκος Σταύρος-Κλειδωνιάρης Αντώνης - Σφάλμα ασυγχώρητο Λ. Στρογγυ
TTITLE0=λού]
TTITLE1=Τζουανάκος Σταύρος-Πλέσσας Στ.-Τατασσόπουλος Γ. - Μα είναι και Θεός [Σ
TTITLE1=Τζουανάκου-Ε. Παπαγιαννοπούλου]
TTITLE2=Τζουανάκος Σταύρος - Η πόρτα του φτωχού [Απ. Χατζηχρήστου]
TTITLE3=Τζουανάκος Σταύρος-Τατασσόπουλος Γιάννης - Τι να σε κάνω αφού πια δε σ
TTITLE3=' αγαπώ [Σ. Τζουανάκου-Ν. Γκούμα]
TTITLE4=Τζουανάκος Σταύρος-Τατασσόπουλος Γιάννης - Η κατάρα της μάγισσας [Σ. Τ
TTITLE4=ζουανάκου]
TTITLE5=Τζουανάκος Σταύρος-Πάνου Πόλυ - Πώς άργησες, πώς άργησες [Σ. Τζουανάκο
TTITLE5=υ]
TTITLE6=Τζουανάκος Σταύρος-Λύδια Γ.-Τατασσόπουλος Γ. - Στα φτωχοταβερνάκια [Μπ
TTITLE6=Μπακάλη]
TTITLE7=Τζουανάκος Σταύρος-Πάνου Πόλυ - Η νύχτα αητή που πέρασε [Σ. Τζουανάκου
TTITLE7=]
TTITLE8=Τζουανάκος Σταύρος-Τατασσόπουλος Γιάννης - Θα πάω με κουρσάρικα [Ε. Ντ
TTITLE8=αράλα]
TTITLE9=Τζουανάκος Σταύρος-Πλέσσας Στ.-Τατασσόπουλος Γ. - Μάγισσες [Γ. Τατασσό
TTITLE9=πουλου-Ν. Ρούτσου]
EXTD=
EXTT0=
EXTT1=
EXTT2=
EXTT3=
EXTT4=
EXTT5=
EXTT6=
EXTT7=
EXTT8=
EXTT9=
PLAYORDER=
